#!OML:ASF H:\Terrain\Walking\May29\JustinRory\Justin.ASF
:FULLY-SPECIFIED
:DEGREES
244
root 13.9208 16.489 5.74257 -318.129 -68.2029 -29.7766
lowerback 20.6899 -0.171666 0.245423
upperback 7.51357 -0.455158 2.77244
thorax -3.39431 -0.435294 2.93627
lowerneck -10.3845 -12.9619 -11.8393
upperneck 18.8356 -18.6187 12.5013
head 10.0119 -8.46821 3.72276
rclavicle 5.64548e-014 3.4191e-014
rhumerus -68.1776 -62.2907 34.4959
rradius 32.3404
rwrist -36.7515
rhand 252.943 0.0264417
rfingers 7.12502
rthumb 72.2822 -256.589
lclavicle 5.64548e-014 3.4191e-014
lhumerus -36.7323 21.7626 60.6556
lradius 32.2505
lwrist -8.98582
lhand -5.96731 28.7228
lfingers 7.12502
lthumb 19.8638 57.7276
rfemur -10.9987 -3.62996 11.3752
rtibia 24.743
rfoot -18.7678 -9.46263
rtoes -29.0466
lfemur -53.3296 18.4755 -1.09746
ltibia 52.7878
lfoot -7.56528 -9.0415
ltoes -7.60635
245
root 13.8627 16.4684 5.87979 -318.107 -67.9414 -30.0538
lowerback 20.6404 -0.124268 0.385931
upperback 7.59112 -0.373588 2.78661
thorax -3.29008 -0.397025 2.85047
lowerneck -10.5248 -12.7486 -11.6151
upperneck 18.9599 -18.2736 12.1511
head 9.97321 -8.31589 3.6242
rclavicle 2.38542e-015 1.74931e-014
rhumerus -68.9446 -62.3627 35.698
rradius 31.9687
rwrist -34.974
rhand 253.745 2.77196
rfingers 7.12502
rthumb 71.8489 -255.933
lclavicle 2.38542e-015 1.74931e-014
lhumerus -36.7446 21.597 60.6604
lradius 32.5617
lwrist -8.27182
lhand -5.51686 29.0265
lfingers 7.12502
lthumb 20.2967 57.986
rfemur -9.84877 -3.91603 11.3603
rtibia 23.8462
rfoot -18.1471 -10.2232
rtoes -31.4031
lfemur -54.0595 19.1777 -2.08032
ltibia 54.1096
lfoot -7.27048 -8.46284
ltoes 0.81354
246
root 13.8162 16.452 6.02831 -319.704 -68.0707 -28.5093
lowerback 20.7016 -0.0424475 -0.115172
upperback 7.5342 -0.360161 2.63476
thorax -3.38237 -0.38922 2.97258
lowerneck -10.5805 -12.5327 -11.6491
upperneck 19.1581 -17.9264 11.9136
head 9.98495 -8.17199 3.60547
rclavicle 1.51076e-014 -2.38542e-014
rhumerus -67.7954 -61.387 34.5239
rradius 32.0429
rwrist -35.2329
rhand 254.103 5.49837
rfingers 7.12502
rthumb 71.648 -254.104
lclavicle 1.51076e-014 -2.38542e-014
lhumerus -36.8864 21.8 60.5568
lradius 32.704
lwrist -8.31181
lhand -5.40048 29.4134
lfingers 7.12502
lthumb 20.4086 58.3609
rfemur -8.73214 -4.39126 10.387
rtibia 22.8381
rfoot -17.703 -10.617
rtoes -30.7175
lfemur -54.7916 19.4987 -3.99852
ltibia 55.5317
lfoot -7.78547 -7.43523
ltoes 3.74154
247
root 13.7574 16.4424 6.16113 -319.6 -67.8946 -28.7963
lowerback 20.7578 0.142912 -0.00145586
upperback 7.43965 -0.0911222 2.60275
thorax -3.52731 -0.251214 2.81304
lowerneck -10.4654 -12.3022 -11.9329
upperneck 19.3877 -17.6088 11.969
head 10.0363 -8.04114 3.72755
rclavicle -2.46493e-014 -1.27222e-014
rhumerus -67.8007 -60.4609 34.4664
rradius 32.0559
rwrist -34.9646
rhand 254.209 7.97608
rfingers 7.12502
rthumb 71.5878 -251.887
lclavicle -2.46493e-014 -1.27222e-014
lhumerus -36.8406 21.5563 60.4617
lradius 32.6951
lwrist -8.39165
lhand -5.22526 29.8841
lfingers 7.12502
lthumb 20.577 58.8135
rfemur -7.68687 -3.91644 10.406
rtibia 21.8409
rfoot -17.3195 -11.8854
rtoes -29.49
lfemur -55.2854 19.8967 -4.86198
ltibia 56.922
lfoot -8.50711 -6.26015
ltoes 3.98623
248
root 13.7134 16.4281 6.3313 -318.803 -67.4245 -29.8153
lowerback 20.8407 0.136666 0.897327
upperback 7.31566 0.0829347 2.56335
thorax -3.70896 -0.153467 2.2192
lowerneck -10.2661 -11.9238 -12.2963
upperneck 19.5978 -17.108 12.153
head 10.0593 -7.82678 3.94339
rclavicle 7.15625e-015 -1.03368e-014
rhumerus -68.9469 -60.3475 35.9257
rradius 31.7364
rwrist -33.3581
rhand 254.438 9.75139
rfingers 7.12502
rthumb 71.4562 -250.672
lclavicle 7.15625e-015 -1.03368e-014
lhumerus -36.8516 21.3582 60.2976
lradius 32.5177
lwrist -8.46824
lhand -5.41155 30.195
lfingers 7.12502
lthumb 20.3979 59.1437
rfemur -6.65805 -4.25313 10.7984
rtibia 20.9089
rfoot -16.29 -12.9718
rtoes -29.9234
lfemur -55.6357 20.0552 -5.2215
ltibia 58.2249
lfoot -9.6392 -5.35369
ltoes 4.14961
249
root 13.6606 16.4146 6.4861 -319.273 -67.1664 -29.3523
lowerback 20.6653 0.151814 0.925758
upperback 7.26842 0.111443 2.52902
thorax -3.67111 -0.135275 2.1577
lowerneck -10.4791 -11.5769 -12.3687
upperneck 19.8885 -16.5676 11.9388
head 10.1128 -7.5881 3.96226
rclavicle 1.03368e-014 -7.15625e-015
rhumerus -68.6556 -59.9378 35.7083
rradius 31.5964
rwrist -33.3834
rhand 254.553 10.2297
rfingers 7.12502
rthumb 71.3891 -250.473
lclavicle 1.03368e-014 -7.15625e-015
lhumerus -36.8888 21.7965 60.0537
lradius 32.264
lwrist -8.60225
lhand -5.69975 30.0328
lfingers 7.12502
lthumb 20.121 59.0109
rfemur -5.73566 -4.75253 10.569
rtibia 20.1316
rfoot -15.2637 -14.0422
rtoes -30.4846
lfemur -55.852 19.8799 -6.04953
ltibia 59.1824
lfoot -10.7999 -4.832
ltoes 4.32276
250
root 13.609 16.3996 6.63023 -317.921 -66.4675 -30.8491
lowerback 20.5027 0.106144 1.74679
upperback 7.21335 0.216593 2.67561
thorax -3.64471 -0.0777697 1.82124
lowerneck -11.0009 -11.2456 -12.0833
upperneck 20.4186 -16.0588 11.4895
head 10.2607 -7.34418 3.82348
rclavicle 2.38542e-014 -5.56597e-015
rhumerus -67.6391 -59.2197 34.4151
rradius 31.5431
rwrist -34.0008
rhand 254.878 10.7311
rfingers 7.12502
rthumb 71.1973 -250.748
lclavicle 2.38542e-014 -5.56597e-015
lhumerus -36.9095 21.89 59.8213
lradius 32.1176
lwrist -8.13599
lhand -6.05106 30.207
lfingers 7.12502
lthumb 19.7833 59.2202
rfemur -5.08267 -4.63429 11.4542
rtibia 19.6114
rfoot -14.4259 -15.5627
rtoes -31.5777
lfemur -55.777 19.6246 -5.31431
ltibia 59.7801
lfoot -11.4747 -4.91114
ltoes 8.49399
